<mxfile host="app.diagrams.net" modified="2021-04-16T08:58:08.923Z" agent="5.0 (X11; Linux x86_64) AppleWebKit/537.36 (KHTML, like Gecko) Chrome/85.0.4183.102 Safari/537.36 OPR/71.0.3770.148" etag="gqo_ZrANSyX1h_wNOVK0" version="14.6.0" type="github">
  <diagram name="Page-1" id="0783ab3e-0a74-02c8-0abd-f7b4e66b4bec">
    <mxGraphModel dx="3007" dy="2411" grid="1" gridSize="10" guides="1" tooltips="1" connect="1" arrows="1" fold="1" page="1" pageScale="1" pageWidth="850" pageHeight="1100" background="#ffffff" math="0" shadow="0">
      <root>
        <mxCell id="0" />
        <mxCell id="1" parent="0" />
        <mxCell id="1c1d494c118603dd-1" value="Продажа и отчетнось в магазине" style="swimlane;html=1;childLayout=stackLayout;startSize=20;rounded=0;shadow=0;comic=0;labelBackgroundColor=none;strokeWidth=1;fontFamily=Verdana;fontSize=12;align=center;" parent="1" vertex="1">
          <mxGeometry x="-210" y="-10" width="1650" height="2170" as="geometry" />
        </mxCell>
        <mxCell id="1c1d494c118603dd-2" value="Поставщик" style="swimlane;html=1;startSize=20;" parent="1c1d494c118603dd-1" vertex="1">
          <mxGeometry y="20" width="250" height="2150" as="geometry" />
        </mxCell>
        <mxCell id="bTJI38dJW_3eZtSQt41i-5" value="" style="ellipse;html=1;shape=startState;fillColor=#000000;strokeColor=#ff0000;" parent="1c1d494c118603dd-2" vertex="1">
          <mxGeometry x="110" y="60" width="30" height="30" as="geometry" />
        </mxCell>
        <mxCell id="bTJI38dJW_3eZtSQt41i-6" value="" style="edgeStyle=orthogonalEdgeStyle;html=1;verticalAlign=bottom;endArrow=open;endSize=8;strokeColor=#ff0000;" parent="1c1d494c118603dd-2" source="bTJI38dJW_3eZtSQt41i-5" edge="1">
          <mxGeometry relative="1" as="geometry">
            <mxPoint x="125" y="150" as="targetPoint" />
          </mxGeometry>
        </mxCell>
        <mxCell id="M5Dkp6spX5m3CRicMR89-11" value="Отправить партию товара" style="rounded=1;whiteSpace=wrap;html=1;arcSize=40;fontColor=#000000;fillColor=#ffffc0;strokeColor=#ff0000;" vertex="1" parent="1c1d494c118603dd-2">
          <mxGeometry x="65" y="110" width="120" height="40" as="geometry" />
        </mxCell>
        <mxCell id="M5Dkp6spX5m3CRicMR89-25" value="Поставщик в соответствии&lt;br&gt;с заказом магазина&lt;br&gt;отправляет товар на склад,&lt;br&gt;прикладывая накладную&amp;nbsp;&lt;br&gt;и другую документацию" style="html=1;" vertex="1" parent="1c1d494c118603dd-2">
          <mxGeometry x="50" y="260" width="170" height="100" as="geometry" />
        </mxCell>
        <mxCell id="M5Dkp6spX5m3CRicMR89-26" value="" style="html=1;verticalAlign=bottom;endArrow=open;dashed=1;endSize=8;exitX=0.25;exitY=0;exitDx=0;exitDy=0;" edge="1" parent="1c1d494c118603dd-2" source="M5Dkp6spX5m3CRicMR89-25">
          <mxGeometry relative="1" as="geometry">
            <mxPoint x="-110" y="220" as="sourcePoint" />
            <mxPoint x="93" y="154" as="targetPoint" />
          </mxGeometry>
        </mxCell>
        <mxCell id="1c1d494c118603dd-3" value="Администратор" style="swimlane;html=1;startSize=20;" parent="1c1d494c118603dd-1" vertex="1">
          <mxGeometry x="250" y="20" width="250" height="2150" as="geometry" />
        </mxCell>
        <mxCell id="bTJI38dJW_3eZtSQt41i-13" value="&lt;div&gt;Расчитать розничную цену&lt;/div&gt;" style="rounded=1;whiteSpace=wrap;html=1;arcSize=40;fontColor=#000000;fillColor=#ffffc0;strokeColor=#ff0000;" parent="1c1d494c118603dd-3" vertex="1">
          <mxGeometry x="65" y="400" width="120" height="40" as="geometry" />
        </mxCell>
        <mxCell id="-8BCLQcnHg3Y3gMtY6GQ-10" value="Составление отчета о продажах" style="rounded=1;whiteSpace=wrap;html=1;arcSize=40;fontColor=#000000;fillColor=#ffffc0;strokeColor=#ff0000;" parent="1c1d494c118603dd-3" vertex="1">
          <mxGeometry x="65" y="1450" width="120" height="40" as="geometry" />
        </mxCell>
        <mxCell id="-8BCLQcnHg3Y3gMtY6GQ-11" value="" style="edgeStyle=orthogonalEdgeStyle;html=1;verticalAlign=bottom;endArrow=open;endSize=8;strokeColor=#ff0000;" parent="1c1d494c118603dd-3" source="-8BCLQcnHg3Y3gMtY6GQ-10" edge="1">
          <mxGeometry relative="1" as="geometry">
            <mxPoint x="125" y="1580" as="targetPoint" />
          </mxGeometry>
        </mxCell>
        <mxCell id="-8BCLQcnHg3Y3gMtY6GQ-12" value="" style="ellipse;html=1;shape=endState;fillColor=#000000;strokeColor=#ff0000;" parent="1c1d494c118603dd-3" vertex="1">
          <mxGeometry x="110" y="1579" width="30" height="30" as="geometry" />
        </mxCell>
        <mxCell id="M5Dkp6spX5m3CRicMR89-18" value="Здесь учитываются и&lt;br&gt;&amp;nbsp;акции в соответствии &lt;br&gt;с ценовой &lt;br&gt;политикой компании" style="html=1;" vertex="1" parent="1c1d494c118603dd-3">
          <mxGeometry x="30" y="530" width="130" height="70" as="geometry" />
        </mxCell>
        <mxCell id="M5Dkp6spX5m3CRicMR89-21" value="&lt;br&gt;" style="html=1;verticalAlign=bottom;endArrow=open;dashed=1;endSize=8;exitX=0.5;exitY=0;exitDx=0;exitDy=0;entryX=0.25;entryY=1;entryDx=0;entryDy=0;" edge="1" parent="1c1d494c118603dd-3" source="M5Dkp6spX5m3CRicMR89-18" target="bTJI38dJW_3eZtSQt41i-13">
          <mxGeometry relative="1" as="geometry">
            <mxPoint x="120" y="480" as="sourcePoint" />
            <mxPoint x="40" y="480" as="targetPoint" />
          </mxGeometry>
        </mxCell>
        <mxCell id="1c1d494c118603dd-4" value="Товаровед" style="swimlane;html=1;startSize=20;" parent="1c1d494c118603dd-1" vertex="1">
          <mxGeometry x="500" y="20" width="250" height="2150" as="geometry" />
        </mxCell>
        <mxCell id="bTJI38dJW_3eZtSQt41i-9" value="&lt;div&gt;Принять товар&lt;/div&gt;" style="rounded=1;whiteSpace=wrap;html=1;arcSize=40;fontColor=#000000;fillColor=#ffffc0;strokeColor=#ff0000;" parent="1c1d494c118603dd-4" vertex="1">
          <mxGeometry x="20" y="230" width="120" height="40" as="geometry" />
        </mxCell>
        <mxCell id="bTJI38dJW_3eZtSQt41i-10" value="" style="edgeStyle=orthogonalEdgeStyle;html=1;verticalAlign=bottom;endArrow=open;endSize=8;strokeColor=#ff0000;" parent="1c1d494c118603dd-4" source="bTJI38dJW_3eZtSQt41i-9" edge="1">
          <mxGeometry relative="1" as="geometry">
            <mxPoint x="125" y="310" as="targetPoint" />
          </mxGeometry>
        </mxCell>
        <mxCell id="bTJI38dJW_3eZtSQt41i-11" value="&lt;div&gt;Сверить с документацией&lt;/div&gt;" style="rounded=1;whiteSpace=wrap;html=1;arcSize=40;fontColor=#000000;fillColor=#ffffc0;strokeColor=#ff0000;" parent="1c1d494c118603dd-4" vertex="1">
          <mxGeometry x="65" y="310" width="120" height="40" as="geometry" />
        </mxCell>
        <mxCell id="bTJI38dJW_3eZtSQt41i-19" value="&lt;div&gt;Составить товарный отчет&lt;/div&gt;" style="rounded=1;whiteSpace=wrap;html=1;arcSize=40;fontColor=#000000;fillColor=#ffffc0;strokeColor=#ff0000;" parent="1c1d494c118603dd-4" vertex="1">
          <mxGeometry x="65" y="720" width="120" height="40" as="geometry" />
        </mxCell>
        <mxCell id="bTJI38dJW_3eZtSQt41i-20" value="" style="edgeStyle=orthogonalEdgeStyle;html=1;verticalAlign=bottom;endArrow=open;endSize=8;strokeColor=#ff0000;" parent="1c1d494c118603dd-4" source="bTJI38dJW_3eZtSQt41i-19" edge="1">
          <mxGeometry relative="1" as="geometry">
            <mxPoint x="125" y="820" as="targetPoint" />
          </mxGeometry>
        </mxCell>
        <mxCell id="bTJI38dJW_3eZtSQt41i-24" value="" style="ellipse;html=1;shape=endState;fillColor=#000000;strokeColor=#ff0000;" parent="1c1d494c118603dd-4" vertex="1">
          <mxGeometry x="110" y="820" width="30" height="30" as="geometry" />
        </mxCell>
        <mxCell id="-8BCLQcnHg3Y3gMtY6GQ-32" value="Сделать новый заказ" style="rounded=1;whiteSpace=wrap;html=1;arcSize=40;fontColor=#000000;fillColor=#ffffc0;strokeColor=#ff0000;" parent="1c1d494c118603dd-4" vertex="1">
          <mxGeometry x="65" y="1920" width="120" height="40" as="geometry" />
        </mxCell>
        <mxCell id="-8BCLQcnHg3Y3gMtY6GQ-33" value="" style="edgeStyle=orthogonalEdgeStyle;html=1;verticalAlign=bottom;endArrow=open;endSize=8;strokeColor=#ff0000;" parent="1c1d494c118603dd-4" source="-8BCLQcnHg3Y3gMtY6GQ-32" edge="1">
          <mxGeometry relative="1" as="geometry">
            <mxPoint x="125" y="2020" as="targetPoint" />
          </mxGeometry>
        </mxCell>
        <mxCell id="-8BCLQcnHg3Y3gMtY6GQ-34" value="" style="ellipse;html=1;shape=endState;fillColor=#000000;strokeColor=#ff0000;" parent="1c1d494c118603dd-4" vertex="1">
          <mxGeometry x="110" y="2020" width="30" height="30" as="geometry" />
        </mxCell>
        <mxCell id="M5Dkp6spX5m3CRicMR89-22" value="Накладная" style="html=1;" vertex="1" parent="1c1d494c118603dd-4">
          <mxGeometry x="150" y="230" width="80" height="36" as="geometry" />
        </mxCell>
        <mxCell id="M5Dkp6spX5m3CRicMR89-23" value="" style="edgeStyle=orthogonalEdgeStyle;html=1;verticalAlign=bottom;endArrow=open;endSize=8;strokeColor=#ff0000;exitX=0.5;exitY=1;exitDx=0;exitDy=0;entryX=0.5;entryY=0;entryDx=0;entryDy=0;" edge="1" parent="1c1d494c118603dd-4" source="M5Dkp6spX5m3CRicMR89-22" target="bTJI38dJW_3eZtSQt41i-11">
          <mxGeometry relative="1" as="geometry">
            <mxPoint x="135" y="320" as="targetPoint" />
            <mxPoint x="90" y="280" as="sourcePoint" />
          </mxGeometry>
        </mxCell>
        <mxCell id="bTJI38dJW_3eZtSQt41i-4" value="&lt;div&gt;Оператор&lt;/div&gt;" style="swimlane;html=1;startSize=20;" parent="1c1d494c118603dd-1" vertex="1">
          <mxGeometry x="750" y="20" width="250" height="2150" as="geometry" />
        </mxCell>
        <mxCell id="bTJI38dJW_3eZtSQt41i-15" value="&lt;div&gt;Обработка штрихкодов&lt;/div&gt;" style="rounded=1;whiteSpace=wrap;html=1;arcSize=40;fontColor=#000000;fillColor=#ffffc0;strokeColor=#ff0000;" parent="bTJI38dJW_3eZtSQt41i-4" vertex="1">
          <mxGeometry x="65" y="520" width="120" height="40" as="geometry" />
        </mxCell>
        <mxCell id="bTJI38dJW_3eZtSQt41i-16" value="" style="edgeStyle=orthogonalEdgeStyle;html=1;verticalAlign=bottom;endArrow=open;endSize=8;strokeColor=#ff0000;entryX=0.502;entryY=0.329;entryDx=0;entryDy=0;entryPerimeter=0;" parent="bTJI38dJW_3eZtSQt41i-4" source="bTJI38dJW_3eZtSQt41i-15" target="bTJI38dJW_3eZtSQt41i-17" edge="1">
          <mxGeometry relative="1" as="geometry">
            <mxPoint x="125" y="580" as="targetPoint" />
          </mxGeometry>
        </mxCell>
        <mxCell id="bTJI38dJW_3eZtSQt41i-17" value="" style="shape=line;html=1;strokeWidth=6;strokeColor=#ff0000;" parent="bTJI38dJW_3eZtSQt41i-4" vertex="1">
          <mxGeometry x="25" y="610" width="200" height="40" as="geometry" />
        </mxCell>
        <mxCell id="-8BCLQcnHg3Y3gMtY6GQ-8" value="Занести данные о реализации в БД" style="rounded=1;whiteSpace=wrap;html=1;arcSize=40;fontColor=#000000;fillColor=#ffffc0;strokeColor=#ff0000;" parent="bTJI38dJW_3eZtSQt41i-4" vertex="1">
          <mxGeometry x="70" y="1320" width="120" height="40" as="geometry" />
        </mxCell>
        <mxCell id="-8BCLQcnHg3Y3gMtY6GQ-20" value="Выгрузить иформацию о товаре в терминал сбора данных" style="rounded=1;whiteSpace=wrap;html=1;arcSize=40;fontColor=#000000;fillColor=#ffffc0;strokeColor=#ff0000;" parent="bTJI38dJW_3eZtSQt41i-4" vertex="1">
          <mxGeometry x="55" y="1490" width="150" height="70" as="geometry" />
        </mxCell>
        <mxCell id="-8BCLQcnHg3Y3gMtY6GQ-29" value="Занести данные в БД" style="rounded=1;whiteSpace=wrap;html=1;arcSize=40;fontColor=#000000;fillColor=#ffffc0;strokeColor=#ff0000;" parent="bTJI38dJW_3eZtSQt41i-4" vertex="1">
          <mxGeometry x="85" y="1840" width="120" height="40" as="geometry" />
        </mxCell>
        <mxCell id="M5Dkp6spX5m3CRicMR89-9" value="Терминал сбора данных" style="html=1;" vertex="1" parent="bTJI38dJW_3eZtSQt41i-4">
          <mxGeometry x="57.5" y="1590" width="145" height="40" as="geometry" />
        </mxCell>
        <mxCell id="M5Dkp6spX5m3CRicMR89-10" value="" style="edgeStyle=orthogonalEdgeStyle;html=1;verticalAlign=bottom;endArrow=open;endSize=8;strokeColor=#ff0000;entryX=0.5;entryY=0;entryDx=0;entryDy=0;exitX=0.5;exitY=1;exitDx=0;exitDy=0;" edge="1" parent="bTJI38dJW_3eZtSQt41i-4" source="-8BCLQcnHg3Y3gMtY6GQ-20" target="M5Dkp6spX5m3CRicMR89-9">
          <mxGeometry relative="1" as="geometry">
            <mxPoint x="385" y="1700" as="targetPoint" />
            <mxPoint x="385" y="1580" as="sourcePoint" />
          </mxGeometry>
        </mxCell>
        <mxCell id="M5Dkp6spX5m3CRicMR89-27" value="После обработки штриходов&amp;nbsp;&lt;br&gt;данные о товаре будут&lt;br&gt;занесены в базу данных&lt;br&gt;магазина" style="html=1;" vertex="1" parent="bTJI38dJW_3eZtSQt41i-4">
          <mxGeometry x="40" y="260" width="180" height="110" as="geometry" />
        </mxCell>
        <mxCell id="M5Dkp6spX5m3CRicMR89-28" value="" style="html=1;verticalAlign=bottom;endArrow=open;dashed=1;endSize=8;entryX=0.75;entryY=0;entryDx=0;entryDy=0;" edge="1" parent="bTJI38dJW_3eZtSQt41i-4" target="bTJI38dJW_3eZtSQt41i-15">
          <mxGeometry relative="1" as="geometry">
            <mxPoint x="155" y="372" as="sourcePoint" />
            <mxPoint x="150" y="430" as="targetPoint" />
          </mxGeometry>
        </mxCell>
        <mxCell id="bTJI38dJW_3eZtSQt41i-12" value="" style="edgeStyle=orthogonalEdgeStyle;html=1;verticalAlign=bottom;endArrow=open;endSize=8;strokeColor=#ff0000;entryX=0.5;entryY=0;entryDx=0;entryDy=0;" parent="1c1d494c118603dd-1" source="bTJI38dJW_3eZtSQt41i-11" target="bTJI38dJW_3eZtSQt41i-13" edge="1">
          <mxGeometry relative="1" as="geometry">
            <mxPoint x="625" y="430" as="targetPoint" />
          </mxGeometry>
        </mxCell>
        <mxCell id="bTJI38dJW_3eZtSQt41i-14" value="" style="edgeStyle=orthogonalEdgeStyle;html=1;verticalAlign=bottom;endArrow=open;endSize=8;strokeColor=#ff0000;entryX=0.5;entryY=0;entryDx=0;entryDy=0;" parent="1c1d494c118603dd-1" source="bTJI38dJW_3eZtSQt41i-13" target="bTJI38dJW_3eZtSQt41i-15" edge="1">
          <mxGeometry relative="1" as="geometry">
            <mxPoint x="375" y="565" as="targetPoint" />
            <Array as="points">
              <mxPoint x="375" y="490" />
              <mxPoint x="875" y="490" />
            </Array>
          </mxGeometry>
        </mxCell>
        <mxCell id="bTJI38dJW_3eZtSQt41i-18" value="" style="edgeStyle=orthogonalEdgeStyle;html=1;verticalAlign=bottom;endArrow=open;endSize=8;strokeColor=#ff0000;entryX=0.5;entryY=0;entryDx=0;entryDy=0;" parent="1c1d494c118603dd-1" source="bTJI38dJW_3eZtSQt41i-17" target="bTJI38dJW_3eZtSQt41i-19" edge="1">
          <mxGeometry relative="1" as="geometry">
            <mxPoint x="875" y="720" as="targetPoint" />
            <Array as="points">
              <mxPoint x="875" y="700" />
              <mxPoint x="625" y="700" />
            </Array>
          </mxGeometry>
        </mxCell>
        <mxCell id="-8BCLQcnHg3Y3gMtY6GQ-9" value="" style="edgeStyle=orthogonalEdgeStyle;html=1;verticalAlign=bottom;endArrow=open;endSize=8;strokeColor=#ff0000;entryX=0.5;entryY=0;entryDx=0;entryDy=0;" parent="1c1d494c118603dd-1" source="-8BCLQcnHg3Y3gMtY6GQ-8" target="-8BCLQcnHg3Y3gMtY6GQ-10" edge="1">
          <mxGeometry relative="1" as="geometry">
            <mxPoint x="880" y="1440" as="targetPoint" />
            <Array as="points">
              <mxPoint x="880" y="1410" />
              <mxPoint x="375" y="1410" />
            </Array>
          </mxGeometry>
        </mxCell>
        <mxCell id="-8BCLQcnHg3Y3gMtY6GQ-28" value="" style="edgeStyle=orthogonalEdgeStyle;html=1;verticalAlign=bottom;endArrow=open;endSize=8;strokeColor=#ff0000;entryX=0.5;entryY=0;entryDx=0;entryDy=0;" parent="1c1d494c118603dd-1" source="-8BCLQcnHg3Y3gMtY6GQ-27" target="-8BCLQcnHg3Y3gMtY6GQ-29" edge="1">
          <mxGeometry relative="1" as="geometry">
            <mxPoint x="1125" y="1930" as="targetPoint" />
            <Array as="points">
              <mxPoint x="1125" y="1820" />
              <mxPoint x="895" y="1820" />
            </Array>
          </mxGeometry>
        </mxCell>
        <mxCell id="-8BCLQcnHg3Y3gMtY6GQ-30" value="" style="edgeStyle=orthogonalEdgeStyle;html=1;verticalAlign=bottom;endArrow=open;endSize=8;strokeColor=#ff0000;entryX=0.5;entryY=0;entryDx=0;entryDy=0;" parent="1c1d494c118603dd-1" source="-8BCLQcnHg3Y3gMtY6GQ-29" target="-8BCLQcnHg3Y3gMtY6GQ-32" edge="1">
          <mxGeometry relative="1" as="geometry">
            <mxPoint x="895" y="2040" as="targetPoint" />
            <Array as="points">
              <mxPoint x="895" y="1910" />
              <mxPoint x="625" y="1910" />
            </Array>
          </mxGeometry>
        </mxCell>
        <mxCell id="M5Dkp6spX5m3CRicMR89-6" value="" style="edgeStyle=orthogonalEdgeStyle;html=1;verticalAlign=bottom;endArrow=open;endSize=8;strokeColor=#ff0000;entryX=0.5;entryY=0;entryDx=0;entryDy=0;" edge="1" parent="1c1d494c118603dd-1" source="M5Dkp6spX5m3CRicMR89-3" target="-8BCLQcnHg3Y3gMtY6GQ-20">
          <mxGeometry relative="1" as="geometry">
            <mxPoint x="1135" y="1560" as="targetPoint" />
            <mxPoint x="1130" y="1460" as="sourcePoint" />
            <Array as="points">
              <mxPoint x="1120" y="1480" />
              <mxPoint x="880" y="1480" />
            </Array>
          </mxGeometry>
        </mxCell>
        <mxCell id="bTJI38dJW_3eZtSQt41i-8" value="" style="edgeStyle=orthogonalEdgeStyle;html=1;verticalAlign=bottom;endArrow=open;endSize=8;strokeColor=#ff0000;entryX=0.495;entryY=-0.073;entryDx=0;entryDy=0;entryPerimeter=0;exitX=0.5;exitY=1;exitDx=0;exitDy=0;" parent="1c1d494c118603dd-1" source="M5Dkp6spX5m3CRicMR89-11" target="bTJI38dJW_3eZtSQt41i-9" edge="1">
          <mxGeometry relative="1" as="geometry">
            <mxPoint x="125" y="300" as="targetPoint" />
            <Array as="points">
              <mxPoint x="125" y="220" />
              <mxPoint x="579" y="220" />
            </Array>
            <mxPoint x="125" y="240" as="sourcePoint" />
          </mxGeometry>
        </mxCell>
        <mxCell id="M5Dkp6spX5m3CRicMR89-13" value="" style="edgeStyle=orthogonalEdgeStyle;html=1;verticalAlign=bottom;endArrow=open;endSize=8;strokeColor=#ff0000;exitX=0.5;exitY=1;exitDx=0;exitDy=0;entryX=0.25;entryY=0.5;entryDx=0;entryDy=0;entryPerimeter=0;" edge="1" parent="1c1d494c118603dd-1" source="M5Dkp6spX5m3CRicMR89-9" target="-8BCLQcnHg3Y3gMtY6GQ-25">
          <mxGeometry relative="1" as="geometry">
            <mxPoint x="1120" y="1710" as="targetPoint" />
            <mxPoint x="1135" y="1600" as="sourcePoint" />
          </mxGeometry>
        </mxCell>
        <mxCell id="bTJI38dJW_3eZtSQt41i-34" value="" style="edgeStyle=orthogonalEdgeStyle;html=1;verticalAlign=bottom;endArrow=open;endSize=8;strokeColor=#ff0000;entryX=0.5;entryY=0;entryDx=0;entryDy=0;" parent="1c1d494c118603dd-1" source="bTJI38dJW_3eZtSQt41i-33" target="bTJI38dJW_3eZtSQt41i-35" edge="1">
          <mxGeometry relative="1" as="geometry">
            <mxPoint x="1375" y="389" as="targetPoint" />
            <Array as="points">
              <mxPoint x="1125" y="279" />
            </Array>
          </mxGeometry>
        </mxCell>
        <mxCell id="bTJI38dJW_3eZtSQt41i-36" value="" style="edgeStyle=orthogonalEdgeStyle;html=1;verticalAlign=bottom;endArrow=open;endSize=8;strokeColor=#ff0000;entryX=0.5;entryY=0;entryDx=0;entryDy=0;" parent="1c1d494c118603dd-1" source="bTJI38dJW_3eZtSQt41i-35" target="bTJI38dJW_3eZtSQt41i-37" edge="1">
          <mxGeometry relative="1" as="geometry">
            <mxPoint x="1125" y="500" as="targetPoint" />
            <Array as="points">
              <mxPoint x="1125" y="430" />
              <mxPoint x="1525" y="430" />
            </Array>
          </mxGeometry>
        </mxCell>
        <mxCell id="bTJI38dJW_3eZtSQt41i-38" value="" style="edgeStyle=orthogonalEdgeStyle;html=1;verticalAlign=bottom;endArrow=open;endSize=8;strokeColor=#ff0000;entryX=0.5;entryY=0;entryDx=0;entryDy=0;" parent="1c1d494c118603dd-1" source="bTJI38dJW_3eZtSQt41i-37" target="bTJI38dJW_3eZtSQt41i-39" edge="1">
          <mxGeometry relative="1" as="geometry">
            <mxPoint x="1375" y="590" as="targetPoint" />
            <Array as="points">
              <mxPoint x="1125" y="480" />
            </Array>
          </mxGeometry>
        </mxCell>
        <mxCell id="bTJI38dJW_3eZtSQt41i-1" value="&lt;div&gt;Кассир&lt;/div&gt;" style="swimlane;html=1;startSize=20;" parent="1c1d494c118603dd-1" vertex="1">
          <mxGeometry x="1000" y="20" width="400" height="2150" as="geometry" />
        </mxCell>
        <mxCell id="bTJI38dJW_3eZtSQt41i-22" value="&lt;div&gt;Вынести товар в торговый зал&lt;/div&gt;" style="rounded=1;whiteSpace=wrap;html=1;arcSize=40;fontColor=#000000;fillColor=#ffffc0;strokeColor=#ff0000;" parent="bTJI38dJW_3eZtSQt41i-1" vertex="1">
          <mxGeometry x="60" y="779" width="120" height="40" as="geometry" />
        </mxCell>
        <mxCell id="bTJI38dJW_3eZtSQt41i-23" value="" style="edgeStyle=orthogonalEdgeStyle;html=1;verticalAlign=bottom;endArrow=open;endSize=8;strokeColor=#ff0000;entryX=0.5;entryY=0;entryDx=0;entryDy=0;" parent="bTJI38dJW_3eZtSQt41i-1" source="bTJI38dJW_3eZtSQt41i-22" target="bTJI38dJW_3eZtSQt41i-25" edge="1">
          <mxGeometry relative="1" as="geometry">
            <mxPoint x="120" y="869" as="targetPoint" />
          </mxGeometry>
        </mxCell>
        <mxCell id="bTJI38dJW_3eZtSQt41i-21" value="" style="edgeStyle=orthogonalEdgeStyle;html=1;verticalAlign=bottom;endArrow=open;endSize=8;strokeColor=#ff0000;entryX=0.5;entryY=0;entryDx=0;entryDy=0;" parent="bTJI38dJW_3eZtSQt41i-1" target="bTJI38dJW_3eZtSQt41i-22" edge="1">
          <mxGeometry relative="1" as="geometry">
            <mxPoint x="130" y="710" as="targetPoint" />
            <mxPoint x="-120" y="650" as="sourcePoint" />
            <Array as="points">
              <mxPoint x="-120" y="740" />
              <mxPoint x="120" y="740" />
            </Array>
          </mxGeometry>
        </mxCell>
        <mxCell id="bTJI38dJW_3eZtSQt41i-25" value="" style="ellipse;html=1;shape=endState;fillColor=#000000;strokeColor=#ff0000;" parent="bTJI38dJW_3eZtSQt41i-1" vertex="1">
          <mxGeometry x="105" y="879" width="30" height="30" as="geometry" />
        </mxCell>
        <mxCell id="bTJI38dJW_3eZtSQt41i-35" value="Пробить товар" style="rounded=1;whiteSpace=wrap;html=1;arcSize=40;fontColor=#000000;fillColor=#ffffc0;strokeColor=#ff0000;" parent="bTJI38dJW_3eZtSQt41i-1" vertex="1">
          <mxGeometry x="65" y="350" width="120" height="40" as="geometry" />
        </mxCell>
        <mxCell id="bTJI38dJW_3eZtSQt41i-39" value="&lt;div&gt;Выда&lt;span&gt;ть чек&lt;/span&gt;&lt;/div&gt;" style="rounded=1;whiteSpace=wrap;html=1;arcSize=40;fontColor=#000000;fillColor=#ffffc0;strokeColor=#ff0000;" parent="bTJI38dJW_3eZtSQt41i-1" vertex="1">
          <mxGeometry x="65" y="530" width="120" height="40" as="geometry" />
        </mxCell>
        <mxCell id="bTJI38dJW_3eZtSQt41i-40" value="" style="edgeStyle=orthogonalEdgeStyle;html=1;verticalAlign=bottom;endArrow=open;endSize=8;strokeColor=#ff0000;" parent="bTJI38dJW_3eZtSQt41i-1" source="bTJI38dJW_3eZtSQt41i-39" edge="1">
          <mxGeometry relative="1" as="geometry">
            <mxPoint x="125" y="630" as="targetPoint" />
          </mxGeometry>
        </mxCell>
        <mxCell id="bTJI38dJW_3eZtSQt41i-41" value="" style="ellipse;html=1;shape=endState;fillColor=#000000;strokeColor=#ff0000;" parent="bTJI38dJW_3eZtSQt41i-1" vertex="1">
          <mxGeometry x="110" y="630" width="30" height="30" as="geometry" />
        </mxCell>
        <mxCell id="-8BCLQcnHg3Y3gMtY6GQ-2" value="" style="ellipse;html=1;shape=startState;fillColor=#000000;strokeColor=#ff0000;" parent="bTJI38dJW_3eZtSQt41i-1" vertex="1">
          <mxGeometry x="105" y="960" width="30" height="30" as="geometry" />
        </mxCell>
        <mxCell id="-8BCLQcnHg3Y3gMtY6GQ-3" value="" style="edgeStyle=orthogonalEdgeStyle;html=1;verticalAlign=bottom;endArrow=open;endSize=8;strokeColor=#ff0000;" parent="bTJI38dJW_3eZtSQt41i-1" source="-8BCLQcnHg3Y3gMtY6GQ-2" edge="1">
          <mxGeometry relative="1" as="geometry">
            <mxPoint x="120" y="1050" as="targetPoint" />
          </mxGeometry>
        </mxCell>
        <mxCell id="-8BCLQcnHg3Y3gMtY6GQ-4" value="Закрыть кассы" style="rounded=1;whiteSpace=wrap;html=1;arcSize=40;fontColor=#000000;fillColor=#ffffc0;strokeColor=#ff0000;" parent="bTJI38dJW_3eZtSQt41i-1" vertex="1">
          <mxGeometry x="65" y="1050" width="120" height="40" as="geometry" />
        </mxCell>
        <mxCell id="-8BCLQcnHg3Y3gMtY6GQ-5" value="" style="edgeStyle=orthogonalEdgeStyle;html=1;verticalAlign=bottom;endArrow=open;endSize=8;strokeColor=#ff0000;" parent="bTJI38dJW_3eZtSQt41i-1" source="-8BCLQcnHg3Y3gMtY6GQ-4" edge="1">
          <mxGeometry relative="1" as="geometry">
            <mxPoint x="125" y="1150" as="targetPoint" />
          </mxGeometry>
        </mxCell>
        <mxCell id="-8BCLQcnHg3Y3gMtY6GQ-6" value="Собрать Z-отчеты" style="rounded=1;whiteSpace=wrap;html=1;arcSize=40;fontColor=#000000;fillColor=#ffffc0;strokeColor=#ff0000;" parent="bTJI38dJW_3eZtSQt41i-1" vertex="1">
          <mxGeometry x="70" y="1150" width="120" height="40" as="geometry" />
        </mxCell>
        <mxCell id="-8BCLQcnHg3Y3gMtY6GQ-23" value="Подготовить товар к инвентаризации" style="rounded=1;whiteSpace=wrap;html=1;arcSize=40;fontColor=#000000;fillColor=#ffffc0;strokeColor=#ff0000;" parent="bTJI38dJW_3eZtSQt41i-1" vertex="1">
          <mxGeometry x="10" y="1530" width="120" height="40" as="geometry" />
        </mxCell>
        <mxCell id="-8BCLQcnHg3Y3gMtY6GQ-24" value="" style="edgeStyle=orthogonalEdgeStyle;html=1;verticalAlign=bottom;endArrow=open;endSize=8;strokeColor=#ff0000;" parent="bTJI38dJW_3eZtSQt41i-1" source="-8BCLQcnHg3Y3gMtY6GQ-23" edge="1">
          <mxGeometry relative="1" as="geometry">
            <mxPoint x="125" y="1690" as="targetPoint" />
          </mxGeometry>
        </mxCell>
        <mxCell id="-8BCLQcnHg3Y3gMtY6GQ-25" value="" style="shape=line;html=1;strokeWidth=6;strokeColor=#ff0000;" parent="bTJI38dJW_3eZtSQt41i-1" vertex="1">
          <mxGeometry x="30" y="1690" width="200" height="10" as="geometry" />
        </mxCell>
        <mxCell id="-8BCLQcnHg3Y3gMtY6GQ-26" value="" style="edgeStyle=orthogonalEdgeStyle;html=1;verticalAlign=bottom;endArrow=open;endSize=8;strokeColor=#ff0000;entryX=0.5;entryY=0;entryDx=0;entryDy=0;" parent="bTJI38dJW_3eZtSQt41i-1" source="-8BCLQcnHg3Y3gMtY6GQ-25" target="-8BCLQcnHg3Y3gMtY6GQ-27" edge="1">
          <mxGeometry relative="1" as="geometry">
            <mxPoint x="125" y="1810" as="targetPoint" />
            <Array as="points">
              <mxPoint x="125" y="1710" />
              <mxPoint x="125" y="1710" />
            </Array>
          </mxGeometry>
        </mxCell>
        <mxCell id="-8BCLQcnHg3Y3gMtY6GQ-27" value="Сверить данные об остатках с реальными" style="rounded=1;whiteSpace=wrap;html=1;arcSize=40;fontColor=#000000;fillColor=#ffffc0;strokeColor=#ff0000;" parent="bTJI38dJW_3eZtSQt41i-1" vertex="1">
          <mxGeometry x="65" y="1730" width="120" height="40" as="geometry" />
        </mxCell>
        <mxCell id="M5Dkp6spX5m3CRicMR89-3" value="" style="shape=line;html=1;strokeWidth=6;strokeColor=#ff0000;" vertex="1" parent="bTJI38dJW_3eZtSQt41i-1">
          <mxGeometry x="25" y="1430" width="200" height="10" as="geometry" />
        </mxCell>
        <mxCell id="M5Dkp6spX5m3CRicMR89-4" value="" style="edgeStyle=orthogonalEdgeStyle;html=1;verticalAlign=bottom;endArrow=open;endSize=8;strokeColor=#ff0000;entryX=0.5;entryY=0;entryDx=0;entryDy=0;" edge="1" source="M5Dkp6spX5m3CRicMR89-3" parent="bTJI38dJW_3eZtSQt41i-1" target="-8BCLQcnHg3Y3gMtY6GQ-23">
          <mxGeometry relative="1" as="geometry">
            <mxPoint x="125" y="1510" as="targetPoint" />
          </mxGeometry>
        </mxCell>
        <mxCell id="M5Dkp6spX5m3CRicMR89-7" value="" style="ellipse;html=1;shape=startState;fillColor=#000000;strokeColor=#ff0000;" vertex="1" parent="bTJI38dJW_3eZtSQt41i-1">
          <mxGeometry x="110" y="1340" width="30" height="30" as="geometry" />
        </mxCell>
        <mxCell id="M5Dkp6spX5m3CRicMR89-8" value="" style="edgeStyle=orthogonalEdgeStyle;html=1;verticalAlign=bottom;endArrow=open;endSize=8;strokeColor=#ff0000;" edge="1" source="M5Dkp6spX5m3CRicMR89-7" parent="bTJI38dJW_3eZtSQt41i-1">
          <mxGeometry relative="1" as="geometry">
            <mxPoint x="125" y="1430" as="targetPoint" />
          </mxGeometry>
        </mxCell>
        <mxCell id="M5Dkp6spX5m3CRicMR89-14" value="Z-отчет" style="html=1;" vertex="1" parent="bTJI38dJW_3eZtSQt41i-1">
          <mxGeometry x="74" y="1230" width="110" height="30" as="geometry" />
        </mxCell>
        <mxCell id="M5Dkp6spX5m3CRicMR89-29" value="Необходимо учесть&lt;br&gt;испортившийся товар и товар,&amp;nbsp;&lt;br&gt;который по тем или иным&lt;br&gt;причинам продать невозможно" style="html=1;" vertex="1" parent="bTJI38dJW_3eZtSQt41i-1">
          <mxGeometry x="170" y="1510" width="220" height="80" as="geometry" />
        </mxCell>
        <mxCell id="M5Dkp6spX5m3CRicMR89-30" value="&lt;br&gt;" style="html=1;verticalAlign=bottom;endArrow=open;dashed=1;endSize=8;exitX=0;exitY=0.5;exitDx=0;exitDy=0;entryX=1;entryY=0.5;entryDx=0;entryDy=0;" edge="1" parent="bTJI38dJW_3eZtSQt41i-1" source="M5Dkp6spX5m3CRicMR89-29" target="-8BCLQcnHg3Y3gMtY6GQ-23">
          <mxGeometry relative="1" as="geometry">
            <mxPoint x="320" y="1890" as="sourcePoint" />
            <mxPoint x="240" y="1890" as="targetPoint" />
          </mxGeometry>
        </mxCell>
        <mxCell id="bTJI38dJW_3eZtSQt41i-2" value="Покупатель" style="swimlane;html=1;startSize=20;" parent="1c1d494c118603dd-1" vertex="1">
          <mxGeometry x="1400" y="20" width="250" height="2150" as="geometry" />
        </mxCell>
        <mxCell id="bTJI38dJW_3eZtSQt41i-29" value="" style="ellipse;html=1;shape=startState;fillColor=#000000;strokeColor=#ff0000;" parent="bTJI38dJW_3eZtSQt41i-2" vertex="1">
          <mxGeometry x="110" y="39" width="30" height="30" as="geometry" />
        </mxCell>
        <mxCell id="bTJI38dJW_3eZtSQt41i-30" value="" style="edgeStyle=orthogonalEdgeStyle;html=1;verticalAlign=bottom;endArrow=open;endSize=8;strokeColor=#ff0000;entryX=0.5;entryY=0;entryDx=0;entryDy=0;" parent="bTJI38dJW_3eZtSQt41i-2" source="bTJI38dJW_3eZtSQt41i-29" target="bTJI38dJW_3eZtSQt41i-31" edge="1">
          <mxGeometry relative="1" as="geometry">
            <mxPoint x="125" y="129" as="targetPoint" />
          </mxGeometry>
        </mxCell>
        <mxCell id="bTJI38dJW_3eZtSQt41i-31" value="Выбрать товар" style="rounded=1;whiteSpace=wrap;html=1;arcSize=40;fontColor=#000000;fillColor=#ffffc0;strokeColor=#ff0000;" parent="bTJI38dJW_3eZtSQt41i-2" vertex="1">
          <mxGeometry x="65" y="139" width="120" height="40" as="geometry" />
        </mxCell>
        <mxCell id="bTJI38dJW_3eZtSQt41i-32" value="" style="edgeStyle=orthogonalEdgeStyle;html=1;verticalAlign=bottom;endArrow=open;endSize=8;strokeColor=#ff0000;" parent="bTJI38dJW_3eZtSQt41i-2" source="bTJI38dJW_3eZtSQt41i-31" edge="1">
          <mxGeometry relative="1" as="geometry">
            <mxPoint x="125" y="239" as="targetPoint" />
          </mxGeometry>
        </mxCell>
        <mxCell id="bTJI38dJW_3eZtSQt41i-33" value="&lt;div&gt;Отнести товар на кассу&lt;/div&gt;" style="rounded=1;whiteSpace=wrap;html=1;arcSize=40;fontColor=#000000;fillColor=#ffffc0;strokeColor=#ff0000;" parent="bTJI38dJW_3eZtSQt41i-2" vertex="1">
          <mxGeometry x="65" y="239" width="120" height="40" as="geometry" />
        </mxCell>
        <mxCell id="bTJI38dJW_3eZtSQt41i-37" value="Оплатить товар" style="rounded=1;whiteSpace=wrap;html=1;arcSize=40;fontColor=#000000;fillColor=#ffffc0;strokeColor=#ff0000;" parent="bTJI38dJW_3eZtSQt41i-2" vertex="1">
          <mxGeometry x="65" y="440" width="120" height="40" as="geometry" />
        </mxCell>
        <mxCell id="M5Dkp6spX5m3CRicMR89-31" value="Подразумеваются различные&lt;br&gt;типы оплаты" style="html=1;" vertex="1" parent="bTJI38dJW_3eZtSQt41i-2">
          <mxGeometry x="40" y="590" width="170" height="100" as="geometry" />
        </mxCell>
        <mxCell id="M5Dkp6spX5m3CRicMR89-32" value="" style="html=1;verticalAlign=bottom;endArrow=open;dashed=1;endSize=8;exitX=0.5;exitY=0;exitDx=0;exitDy=0;entryX=0.5;entryY=1;entryDx=0;entryDy=0;" edge="1" parent="bTJI38dJW_3eZtSQt41i-2" source="M5Dkp6spX5m3CRicMR89-31" target="bTJI38dJW_3eZtSQt41i-37">
          <mxGeometry relative="1" as="geometry">
            <mxPoint x="130" y="540" as="sourcePoint" />
            <mxPoint x="50" y="540" as="targetPoint" />
          </mxGeometry>
        </mxCell>
        <mxCell id="M5Dkp6spX5m3CRicMR89-17" value="" style="edgeStyle=orthogonalEdgeStyle;html=1;verticalAlign=bottom;endArrow=open;endSize=8;strokeColor=#ff0000;entryX=0.5;entryY=0;entryDx=0;entryDy=0;exitX=0.5;exitY=1;exitDx=0;exitDy=0;" edge="1" parent="1c1d494c118603dd-1" source="M5Dkp6spX5m3CRicMR89-14" target="-8BCLQcnHg3Y3gMtY6GQ-8">
          <mxGeometry relative="1" as="geometry">
            <mxPoint x="1139" y="1259.9999999999995" as="targetPoint" />
            <mxPoint x="1139" y="1219.9999999999995" as="sourcePoint" />
          </mxGeometry>
        </mxCell>
        <mxCell id="M5Dkp6spX5m3CRicMR89-24" value="" style="edgeStyle=orthogonalEdgeStyle;html=1;verticalAlign=bottom;endArrow=open;endSize=8;strokeColor=#ff0000;entryX=0.5;entryY=0;entryDx=0;entryDy=0;exitX=0.5;exitY=1;exitDx=0;exitDy=0;" edge="1" parent="1c1d494c118603dd-1" source="M5Dkp6spX5m3CRicMR89-11" target="M5Dkp6spX5m3CRicMR89-22">
          <mxGeometry relative="1" as="geometry">
            <mxPoint x="589.3999999999996" y="257.0799999999999" as="targetPoint" />
            <Array as="points">
              <mxPoint x="125" y="220" />
              <mxPoint x="690" y="220" />
            </Array>
            <mxPoint x="135" y="180" as="sourcePoint" />
          </mxGeometry>
        </mxCell>
        <mxCell id="M5Dkp6spX5m3CRicMR89-16" value="" style="edgeStyle=orthogonalEdgeStyle;html=1;verticalAlign=bottom;endArrow=open;endSize=8;strokeColor=#ff0000;entryX=0.5;entryY=0;entryDx=0;entryDy=0;" edge="1" parent="1" target="M5Dkp6spX5m3CRicMR89-14">
          <mxGeometry relative="1" as="geometry">
            <mxPoint x="925" y="1169.9999999999995" as="targetPoint" />
            <mxPoint x="919" y="1200" as="sourcePoint" />
          </mxGeometry>
        </mxCell>
      </root>
    </mxGraphModel>
  </diagram>
</mxfile>
